<?xml version="1.0" encoding="UTF-8" standalone="no"?>
<!DOCTYPE svg PUBLIC "-//W3C//DTD SVG 1.1//EN" "http://www.w3.org/Graphics/SVG/1.1/DTD/svg11.dtd">
<svg width="100%" height="100%" viewBox="0 0 1656 500" version="1.1" xmlns="http://www.w3.org/2000/svg" xmlns:xlink="http://www.w3.org/1999/xlink" xml:space="preserve" xmlns:serif="http://www.serif.com/" style="fill-rule:evenodd;clip-rule:evenodd;stroke-linejoin:round;stroke-miterlimit:2;">
    <g transform="matrix(1,0,0,1,-1150.023872,-1113)">
        <g id="Prancheta8" transform="matrix(0.716794,0,0,1,325.693342,-2.476496)">
            <rect x="1150.024" y="1115.476" width="2310.189" height="500" style="fill:none;"/>
            <g transform="matrix(15.505463,0,0,11.114227,-29610.291705,-13299.389445)">
                <path d="M2002.429,1337.993C2011.479,1337.993 2016.779,1334.543 2016.779,1328.693C2016.779,1324.393 2013.429,1321.243 2008.079,1320.293C2012.179,1319.393 2015.179,1316.293 2015.179,1312.493C2015.179,1307.043 2010.779,1303.743 2003.479,1303.743L1987.229,1303.743L1987.229,1305.293L1989.029,1306.143C1990.729,1306.943 1991.079,1307.643 1991.079,1309.193L1991.079,1332.543C1991.079,1334.093 1990.729,1334.743 1989.029,1335.593L1987.229,1336.443L1987.229,1337.993L2002.429,1337.993ZM1997.879,1306.693L2000.879,1306.693C2005.279,1306.693 2007.879,1308.993 2007.879,1312.643C2007.879,1316.393 2005.179,1319.043 2001.129,1319.043L1997.879,1319.043L1997.879,1306.693ZM1997.879,1321.993L2001.729,1321.993C2006.729,1321.993 2009.529,1324.393 2009.529,1328.593C2009.529,1332.593 2006.629,1335.043 2001.779,1335.043L1997.879,1335.043L1997.879,1321.993Z" style="fill-rule:nonzero;"/>
                <path d="M2026.679,1308.743C2029.129,1308.743 2030.829,1306.993 2030.829,1304.593C2030.829,1302.093 2028.979,1300.443 2026.679,1300.443C2024.429,1300.443 2022.579,1302.093 2022.579,1304.593C2022.579,1306.843 2024.229,1308.743 2026.679,1308.743ZM2034.129,1337.993L2034.129,1336.493L2032.229,1335.643C2030.779,1334.943 2030.379,1334.343 2030.379,1332.593L2030.379,1313.143L2029.029,1312.343L2020.379,1315.793L2020.379,1317.243L2022.129,1317.793C2023.529,1318.193 2023.979,1318.893 2023.979,1321.243L2023.979,1332.593C2023.979,1334.343 2023.579,1334.943 2022.129,1335.643L2020.229,1336.493L2020.229,1337.993L2034.129,1337.993Z" style="fill-rule:nonzero;"/>
                <path d="M2050.479,1338.493C2057.779,1338.493 2063.429,1332.943 2063.429,1325.493C2063.429,1317.543 2058.229,1312.343 2050.479,1312.343C2043.179,1312.343 2037.529,1317.943 2037.529,1325.393C2037.529,1333.343 2042.779,1338.493 2050.479,1338.493ZM2048.085,1328.271C2044.385,1328.271 2044.479,1333.741 2044.479,1327.291C2044.479,1320.841 2046.521,1317.81 2050.221,1317.81C2053.971,1317.81 2056.479,1320.891 2056.479,1327.391C2056.479,1333.841 2051.835,1328.271 2048.085,1328.271Z" style="fill-rule:nonzero;"/>
                <path d="M2080.529,1337.993L2080.529,1336.493L2078.629,1335.643C2077.279,1334.993 2076.979,1334.443 2076.979,1332.593L2076.979,1320.393C2078.429,1318.643 2080.479,1317.493 2082.529,1317.493C2085.779,1317.493 2087.579,1319.593 2087.579,1323.643L2087.579,1332.593C2087.579,1334.443 2087.229,1334.993 2085.929,1335.643L2084.029,1336.493L2084.029,1337.993L2097.679,1337.993L2097.679,1336.493L2095.829,1335.643C2094.329,1334.943 2093.979,1334.293 2093.979,1332.593L2093.979,1322.343C2093.979,1316.093 2090.779,1312.343 2085.579,1312.343C2082.379,1312.343 2079.029,1314.443 2076.429,1317.893L2076.429,1313.143L2075.079,1312.343L2066.979,1315.843L2066.979,1317.293L2068.729,1317.843C2070.179,1318.293 2070.579,1319.043 2070.579,1321.343L2070.579,1332.593C2070.579,1334.293 2070.229,1334.943 2068.729,1335.643L2066.829,1336.493L2066.829,1337.993L2080.529,1337.993Z" style="fill-rule:nonzero;"/>
                <path d="M2113.679,1337.993L2113.679,1336.493L2111.779,1335.643C2110.329,1334.943 2109.929,1334.343 2109.929,1332.593L2109.929,1325.143L2112.829,1325.143L2120.579,1337.993L2129.829,1337.993L2129.829,1336.493L2127.829,1335.693C2126.779,1335.243 2126.029,1334.543 2125.229,1333.293L2118.079,1322.143L2121.579,1318.243C2123.429,1316.193 2123.979,1315.843 2126.029,1315.043L2128.129,1314.343L2128.129,1312.843L2116.329,1312.843L2116.329,1314.343L2118.029,1314.893C2118.679,1315.143 2119.179,1315.443 2119.179,1315.843C2119.179,1316.393 2118.779,1317.043 2118.179,1317.693L2115.629,1320.693C2114.629,1321.843 2113.379,1322.493 2112.179,1322.493L2109.929,1322.493L2109.929,1301.343L2108.579,1300.493L2099.929,1303.893L2099.929,1305.393L2101.679,1305.943C2103.079,1306.393 2103.529,1307.093 2103.529,1309.343L2103.529,1332.593C2103.529,1334.343 2103.129,1334.943 2101.679,1335.643L2099.779,1336.493L2099.779,1337.993L2113.679,1337.993Z" style="fill-rule:nonzero;"/>
            </g>
        </g>
    </g>
</svg>
