<?xml version="1.0" encoding="utf-8" ?><svg xmlns="http://www.w3.org/2000/svg" xmlns:xlink="http://www.w3.org/1999/xlink" width="500" height="500" viewBox="0 0 500 500"><path fill="#AD4CF4" d="M162.426 261.087C153.632 256.587 148.679 253.489 141.47 246.865C130.107 236.86 122.378 223.446 117.95 209.07C116.02 202.802 114.677 195.77 113.489 189.328C111.592 179.043 110.488 169.493 100.323 163.898C91.9738 159.302 88.0367 167.693 80.5634 165.549C76.9469 164.486 76.2024 157.199 77.9246 154.543C81.0195 149.772 87.5097 145.938 92.8675 144.423C101.441 142.017 110.62 143.122 118.378 147.494C125.377 151.494 130.585 157.948 134.16 165.112C135.045 166.886 136.242 170.493 137.187 171.805C136.818 167.589 135.404 163.328 134.998 158.864C129.052 93.6215 176.242 42.736 240.974 37.5256C273.059 34.6876 304.955 44.7372 329.618 65.4554C356.122 88.0053 369.838 122.863 367.063 157.222C366.796 160.53 366.154 163.73 365.746 167.001L365.865 166.799C367.146 164.585 367.926 162.076 369.276 159.88C379.34 143.508 402.635 137.194 418.128 149.754C420.624 151.777 422.67 153.804 423.572 157.081C424.148 159.137 423.831 161.34 422.699 163.149C417.373 171.519 409.671 158.241 399.053 164.625C396.777 166.01 394.792 167.825 393.209 169.968C388.237 176.818 386.756 193.525 384.677 202.161C380.48 219.593 373.466 233.348 360.392 245.767C353.565 252.251 348.128 256.778 339.245 260.317C353.064 274.922 373.034 277.26 388.866 263.12C406.735 247.161 403.085 222.244 417.483 204.732C428.908 190.836 452.448 188.149 467.839 196.697C469.863 197.827 472.238 200.45 474.584 201.53C478.772 206.105 482.861 212.255 483.145 218.601C483.291 221.853 479.179 224.575 476.342 224.012C467.344 221.958 464.707 215.003 454.214 216.792C447.338 217.964 440.126 223.793 438.004 230.404C434.003 242.873 434.023 255.45 429.036 268.094C422.431 284.469 409.646 297.586 393.445 304.608C376.787 311.657 361.848 312.357 344.319 307.886C343.525 308.693 343.33 308.924 342.398 309.53C354.791 323.496 364.603 337.49 385.138 338.595C403.137 339.564 412.285 332.451 425.987 322.697C437.702 314.357 452.62 309.132 467.182 312.024C475.176 313.562 482.445 317.677 487.877 323.74C493.374 329.906 496.698 338.536 494.791 346.794C488.108 354.336 482.694 348.084 478.09 342.516C475.948 339.925 471.385 336.927 468.038 336.271C464.948 335.307 460.443 335.204 457.432 336.281C449.779 337.673 442.034 346.41 436.581 351.569C418.136 369.019 397.44 378.298 371.6 375.547C343.876 372.596 321.669 355.436 307.021 332.283C306.526 331.501 305.523 330.256 304.606 330.116C301.92 331.575 303.615 336.275 303.735 338.649C304.849 360.599 313.248 380.974 331.946 393.571C337.577 397.072 345.729 400.73 352.101 402.376C370.85 407.221 393.308 408.635 400.602 430.362C404.164 440.975 403.259 457.697 391.71 463.416C389.472 464.524 386.345 463.296 384.328 462.245C383.225 460.31 383.016 459.844 382.372 457.757C383.907 451.653 385.967 446.908 381.856 441.182C375.908 432.899 367.322 432.601 358.02 432.36L345.656 432.057C294.515 430.667 265.3 394.108 254.302 347.069C253.854 345.154 253.049 338.856 250.723 338.754C248.992 339.769 247.904 346.627 247.289 348.903C244.589 358.887 241.094 368.481 236.849 377.839C222.693 409.052 195.118 430.553 160.353 431.963C150.702 432.862 137.866 431.259 128.749 434.445C120.669 437.269 115.217 446.148 118.596 454.402C119.631 456.929 118.868 459.631 117.772 461.973C113.525 465.021 108.033 464.018 104.903 459.877C100.04 453.444 98.5626 445.728 99.3678 437.872C101.514 416.936 119.696 408.185 138.275 405.161C149.317 403.209 162.501 399.291 171.519 392.506C188.334 379.856 196.12 361.863 197.907 341.241C198.208 338.337 198.306 335.391 198.609 332.407L196.92 329.96C194.696 332.568 192.721 335.836 190.509 338.63C181.019 350.618 169.739 361.167 155.991 368.283C136.787 378.224 111.98 378.359 92.153 369.931C83.5063 366.256 76.7695 361.114 69.4818 355.401C60.2227 348.142 55.0473 339.585 43.3449 336.013C40.7735 335.25 36.6724 335.399 34.1751 336.28C25.3347 338.291 23.1763 344.04 16.9109 349.526C15.0445 350.696 10.8414 350.115 9.25747 349.052C2.64005 344.614 7.70188 332.727 10.749 327.538C15.3814 319.649 25.1809 314.085 33.8068 312.101C47.5931 308.93 62.0612 313.471 73.2494 321.626C84.1406 329.291 91.1496 335.279 104.758 337.898C110.657 339.006 116.711 339.005 122.61 337.894C137.55 334.962 148.124 322.713 157.768 311.721C158.1 311.342 158.757 310.184 159.152 309.652C158.669 309.452 157.182 308.837 156.801 308.843C151.244 308.93 145.407 310.605 139.776 310.697C110.737 311.171 84.6334 296.249 73.2278 269.008C71.3437 264.508 70.0218 260.09 68.9036 255.191C65.897 242.021 66.7583 224.878 52.504 218.212C48.1111 216.209 41.5446 216.1 37.1697 217.954C32.0789 220.113 28.8176 226.135 22.3027 223.512C16.5345 221.189 18.5016 214.692 20.276 210.562C23.8151 202.323 31.1562 197.538 39.2242 194.364C48.8137 190.685 60.9854 190.969 70.4915 195.064C82.379 200.184 88.5538 210.387 93.2708 221.952C94.2058 224.244 95.4559 228.825 96.1361 231.275C99.2989 242.668 102.939 253.884 111.945 262.119C114.68 264.62 118.418 267.748 121.888 269.225C130.938 273.078 139.739 274.113 149 270.384C155.152 267.907 157.621 265.412 162.426 261.087Z"/><path fill="#AD4CF4" fill-opacity="0.011764706" d="M457.432 336.281C460.443 335.204 464.948 335.307 468.038 336.271C464.504 336.423 460.966 336.427 457.432 336.281Z"/><path fill="#AD4CF4" fill-opacity="0.011764706" d="M34.1751 336.28C36.6724 335.399 40.7735 335.25 43.3449 336.013C41.5929 336.56 36.1548 336.472 34.1751 336.28Z"/></svg>