<?xml version="1.0" encoding="UTF-8" standalone="no"?>
<!DOCTYPE svg PUBLIC "-//W3C//DTD SVG 1.1//EN" "http://www.w3.org/Graphics/SVG/1.1/DTD/svg11.dtd">
<svg width="100%" height="100%" viewBox="0 0 1962 500" version="1.1" xmlns="http://www.w3.org/2000/svg" xmlns:xlink="http://www.w3.org/1999/xlink" xml:space="preserve" xmlns:serif="http://www.serif.com/" style="fill-rule:evenodd;clip-rule:evenodd;stroke-linecap:round;stroke-linejoin:round;stroke-miterlimit:1.5;">
    <g transform="matrix(1,0,0,1,-3161,-565)">
        <g id="Prancheta12" transform="matrix(1,0,0,1,-0.859418,-0.476496)">
            <rect x="3161.859" y="565.476" width="1961.836" height="500" style="fill:none;"/>
            <g transform="matrix(1,0,0,1,2008.220219,-549.047008)">
                <g transform="matrix(1.288552,0,0,0.88191,1095.015962,1146.870304)">
                    <path d="M232.954,231.932C232.954,274.538 198.363,309.129 155.756,309.129C113.15,309.129 78.559,274.538 78.559,231.932L78.559,84.773C78.559,42.167 113.15,7.576 155.756,7.576L232.954,7.576L232.954,231.932" style="fill:white;fill-opacity:0.98;stroke:rgb(0,238,0);stroke-opacity:0;stroke-width:3.77px;"/>
                </g>
                <g transform="matrix(1.288552,0,0,0.861782,1095.015962,1152.753047)">
                    <path d="M78.559,411.668C78.559,455.27 113.15,490.669 155.756,490.669L232.954,490.669L232.954,363.286C232.954,363.286 95.832,371.124 78.559,292.263L78.559,414.664" style="fill:white;fill-opacity:0.98;stroke:rgb(0,238,0);stroke-opacity:0;stroke-width:3.8px;"/>
                </g>
                <g transform="matrix(-1.29769,0,-0,-0.88191,1721.726186,1583.129696)">
                    <path d="M232.954,231.932C232.954,274.538 198.363,309.129 155.756,309.129C113.15,309.129 78.559,274.538 78.559,231.932L78.559,84.773C78.559,42.167 113.15,7.576 155.756,7.576L232.954,7.576L232.954,231.932" style="fill:white;fill-opacity:0.98;stroke:rgb(0,238,0);stroke-opacity:0;stroke-width:3.76px;"/>
                </g>
                <g transform="matrix(-1.29769,0,-0,-0.861782,1721.726186,1577.246953)">
                    <path d="M78.559,411.668C78.559,455.27 113.15,490.669 155.756,490.669L232.954,490.669L232.954,363.286C232.954,363.286 95.832,371.124 78.559,292.263L78.559,414.664" style="fill:white;fill-opacity:0.98;stroke:rgb(0,238,0);stroke-opacity:0;stroke-width:3.78px;"/>
                </g>
            </g>
            <g transform="matrix(0.916771,0,0,0.916771,1993.257337,313.983151)">
                <path d="M2104.563,745.541C2190.963,745.541 2244.363,710.141 2244.363,638.741C2244.363,584.741 2211.963,543.941 2120.763,536.741C2185.563,531.341 2227.563,499.541 2227.563,446.141C2227.563,386.741 2189.163,343.541 2107.563,343.541L1925.163,343.541L1925.163,745.541L2104.563,745.541ZM2087.163,403.541C2129.163,403.541 2157.363,416.741 2157.363,457.541C2157.363,498.341 2129.763,510.941 2089.563,510.941L1992.963,510.941L1992.963,403.541L2087.163,403.541ZM2096.163,567.941C2142.963,567.941 2174.763,585.941 2174.763,626.741C2174.763,667.541 2149.563,685.541 2094.363,685.541L1992.963,685.541L1992.963,567.941L2096.163,567.941Z" style="fill:white;fill-rule:nonzero;"/>
                <path d="M2372.163,411.941L2372.163,343.541L2304.963,343.541L2304.963,411.941L2372.163,411.941ZM2372.163,745.541L2372.163,453.341L2304.963,453.341L2304.963,745.541L2372.163,745.541Z" style="fill:white;fill-rule:nonzero;"/>
                <path d="M2565.963,751.541C2651.163,751.541 2708.763,690.341 2708.763,599.741C2708.763,508.541 2651.163,447.341 2565.963,447.341C2481.963,447.341 2424.363,508.541 2424.363,599.741C2424.363,690.341 2481.963,751.541 2565.963,751.541ZM2566.563,695.741C2523.363,695.741 2493.363,666.941 2493.363,599.741C2493.363,531.941 2523.363,503.141 2566.563,503.141C2610.363,503.141 2640.363,531.941 2640.363,599.741C2640.363,666.941 2610.363,695.741 2566.563,695.741Z" style="fill:white;fill-rule:nonzero;"/>
                <path d="M2833.563,745.541L2833.563,581.741C2833.563,533.741 2850.363,501.941 2899.563,501.941C2944.563,501.941 2956.563,526.541 2956.563,562.541L2956.563,745.541L3024.363,745.541L3024.363,542.141C3024.363,481.541 2989.563,447.341 2932.563,447.341C2874.363,447.341 2844.363,486.941 2833.563,533.141L2833.563,453.341L2766.363,453.341L2766.363,745.541L2833.563,745.541Z" style="fill:white;fill-rule:nonzero;"/>
                <path d="M3160.563,745.541L3160.563,651.941L3204.363,608.741L3289.563,745.541L3368.163,745.541L3249.963,568.541L3368.163,453.341L3285.963,453.341L3206.163,531.341L3158.163,584.141L3160.563,527.741L3160.563,343.541L3093.363,343.541L3093.363,745.541L3160.563,745.541Z" style="fill:white;fill-rule:nonzero;"/>
            </g>
        </g>
    </g>
</svg>
