<?xml version="1.0" encoding="UTF-8" standalone="no"?>
<!DOCTYPE svg PUBLIC "-//W3C//DTD SVG 1.1//EN" "http://www.w3.org/Graphics/SVG/1.1/DTD/svg11.dtd">
<svg width="100%" height="100%" viewBox="0 0 500 500" version="1.1" xmlns="http://www.w3.org/2000/svg" xmlns:xlink="http://www.w3.org/1999/xlink" xml:space="preserve" xmlns:serif="http://www.serif.com/" style="fill-rule:evenodd;clip-rule:evenodd;stroke-linecap:round;stroke-linejoin:round;stroke-miterlimit:1.5;">
    <g transform="matrix(1,0,0,1,-1137,-1113)">
        <rect id="Prancheta9" x="1137" y="1113" width="500" height="500" style="fill:none;"/>
        <g id="Prancheta91" serif:id="Prancheta9">
            <g transform="matrix(1.461092,0,0,1,1030.992373,1113.761817)">
                <path d="M232.954,231.932C232.954,274.538 198.363,309.129 155.756,309.129C113.15,309.129 78.559,274.538 78.559,231.932L78.559,84.773C78.559,42.167 113.15,7.576 155.756,7.576L232.954,7.576L232.954,231.932" style="fill:white;fill-opacity:0.98;stroke:rgb(0,238,0);stroke-opacity:0;stroke-width:3.33px;"/>
            </g>
            <g transform="matrix(1.461092,0,0,0.977177,1030.992373,1120.432276)">
                <path d="M78.559,411.668C78.559,455.27 113.15,490.669 155.756,490.669L232.954,490.669L232.954,363.286C232.954,363.286 95.832,371.124 78.559,292.263L78.559,414.664" style="fill:white;fill-opacity:0.98;stroke:rgb(0,238,0);stroke-opacity:0;stroke-width:3.35px;"/>
            </g>
            <g transform="matrix(-1.471454,0,-0,-1,1741.620817,1608.43754)">
                <path d="M232.954,231.932C232.954,274.538 198.363,309.129 155.756,309.129C113.15,309.129 78.559,274.538 78.559,231.932L78.559,84.773C78.559,42.167 113.15,7.576 155.756,7.576L232.954,7.576L232.954,231.932" style="fill:white;fill-opacity:0.98;stroke:rgb(0,238,0);stroke-opacity:0;stroke-width:3.31px;"/>
            </g>
            <g transform="matrix(-1.471454,0,-0,-0.977177,1741.620817,1601.767082)">
                <path d="M78.559,411.668C78.559,455.27 113.15,490.669 155.756,490.669L232.954,490.669L232.954,363.286C232.954,363.286 95.832,371.124 78.559,292.263L78.559,414.664" style="fill:white;fill-opacity:0.98;stroke:rgb(0,238,0);stroke-opacity:0;stroke-width:3.34px;"/>
            </g>
        </g>
    </g>
</svg>
