<svg width="500" height="250" viewBox="0 0 500 250" fill="none" xmlns="http://www.w3.org/2000/svg">
<rect width="500" height="250" rx="40" fill="#21255A"/>
<path d="M133.972 29.2727V38H132.915V30.3807H132.864L130.733 31.7955V30.7216L132.915 29.2727H133.972ZM136.277 36.2102V35.3409L140.112 29.2727H140.743V30.6193H140.317L137.419 35.2045V35.2727H142.584V36.2102H136.277ZM140.385 38V35.946V35.5412V29.2727H141.391V38H140.385ZM144.521 38.0682C144.31 38.0682 144.13 37.9929 143.979 37.8423C143.829 37.6918 143.754 37.5114 143.754 37.3011C143.754 37.0909 143.829 36.9105 143.979 36.7599C144.13 36.6094 144.31 36.5341 144.521 36.5341C144.731 36.5341 144.911 36.6094 145.062 36.7599C145.212 36.9105 145.288 37.0909 145.288 37.3011C145.288 37.4403 145.252 37.5682 145.181 37.6847C145.113 37.8011 145.021 37.8949 144.904 37.9659C144.79 38.0341 144.663 38.0682 144.521 38.0682ZM149.1 29.2727V38H148.044V30.3807H147.993L145.862 31.7955V30.7216L148.044 29.2727H149.1ZM154.679 29.2727V38H153.622V30.3807H153.571L151.44 31.7955V30.7216L153.622 29.2727H154.679ZM161.637 36.3636V35.9034C161.637 35.5852 161.703 35.294 161.833 35.0298C161.967 34.7628 162.16 34.5497 162.413 34.3906C162.669 34.2287 162.978 34.1477 163.342 34.1477C163.711 34.1477 164.021 34.2287 164.271 34.3906C164.521 34.5497 164.71 34.7628 164.838 35.0298C164.966 35.294 165.029 35.5852 165.029 35.9034V36.3636C165.029 36.6818 164.964 36.9744 164.833 37.2415C164.706 37.5057 164.515 37.7187 164.262 37.8807C164.012 38.0398 163.706 38.1193 163.342 38.1193C162.973 38.1193 162.662 38.0398 162.409 37.8807C162.156 37.7187 161.964 37.5057 161.833 37.2415C161.703 36.9744 161.637 36.6818 161.637 36.3636ZM162.507 35.9034V36.3636C162.507 36.6278 162.569 36.8651 162.694 37.0753C162.819 37.2827 163.035 37.3864 163.342 37.3864C163.64 37.3864 163.85 37.2827 163.973 37.0753C164.098 36.8651 164.16 36.6278 164.16 36.3636V35.9034C164.16 35.6392 164.1 35.4034 163.981 35.196C163.862 34.9858 163.649 34.8807 163.342 34.8807C163.044 34.8807 162.829 34.9858 162.699 35.196C162.571 35.4034 162.507 35.6392 162.507 35.9034ZM157.291 31.3693V30.9091C157.291 30.5909 157.356 30.2997 157.487 30.0355C157.62 29.7685 157.814 29.5554 158.066 29.3963C158.322 29.2344 158.632 29.1534 158.995 29.1534C159.365 29.1534 159.674 29.2344 159.924 29.3963C160.174 29.5554 160.363 29.7685 160.491 30.0355C160.619 30.2997 160.683 30.5909 160.683 30.9091V31.3693C160.683 31.6875 160.618 31.9801 160.487 32.2472C160.359 32.5114 160.169 32.7244 159.916 32.8864C159.666 33.0455 159.359 33.125 158.995 33.125C158.626 33.125 158.315 33.0455 158.062 32.8864C157.809 32.7244 157.618 32.5114 157.487 32.2472C157.356 31.9801 157.291 31.6875 157.291 31.3693ZM158.16 30.9091V31.3693C158.16 31.6335 158.223 31.8707 158.348 32.081C158.473 32.2884 158.689 32.392 158.995 32.392C159.294 32.392 159.504 32.2884 159.626 32.081C159.751 31.8707 159.814 31.6335 159.814 31.3693V30.9091C159.814 30.6449 159.754 30.4091 159.635 30.2017C159.515 29.9915 159.302 29.8864 158.995 29.8864C158.697 29.8864 158.483 29.9915 158.352 30.2017C158.224 30.4091 158.16 30.6449 158.16 30.9091ZM157.615 38L163.615 29.2727H164.586L158.586 38H157.615Z" fill="#00BCFF"/>
<path d="M45 152C45 146.477 49.4772 142 55 142H85C90.5228 142 95 146.477 95 152V220.525C95 226.047 90.5228 230.525 85 230.525H55C49.4772 230.525 45 226.047 45 220.525V152Z" fill="#1B6190"/>
<path d="M45 183.803H95V220.525C95 226.047 90.5228 230.525 85 230.525H55C49.4772 230.525 45 226.047 45 220.525V183.803Z" fill="#00BCFF"/>
<path d="M117 114C117 108.477 121.477 104 127 104H157C162.523 104 167 108.477 167 114V220.525C167 226.047 162.523 230.525 157 230.525H127C121.477 230.525 117 226.047 117 220.525V114Z" fill="#1B6190"/>
<path d="M117 163.748H167V220.525C167 226.047 162.523 230.525 157 230.525H127C121.477 230.525 117 226.047 117 220.525V163.748Z" fill="#00BCFF"/>
<path d="M189 47C189 41.4772 193.477 37 199 37H229C234.523 37 239 41.4772 239 47V220.525C239 226.047 234.523 230.525 229 230.525H199C193.477 230.525 189 226.047 189 220.525V47Z" fill="#1B6190"/>
<path d="M189 128.387H239V220.525C239 226.047 234.523 230.525 229 230.525H199C193.477 230.525 189 226.047 189 220.525V128.387Z" fill="#00BCFF"/>
<path d="M261 82C261 76.4772 265.477 72 271 72H301C306.523 72 311 76.4772 311 82V220.525C311 226.047 306.523 230.525 301 230.525H271C265.477 230.525 261 226.047 261 220.525V82Z" fill="#1B6190"/>
<path d="M261 146.859H311V220.525C311 226.047 306.523 230.525 301 230.525H271C265.477 230.525 261 226.047 261 220.525V146.859Z" fill="#00BCFF"/>
<path d="M333 62C333 56.4772 337.477 52 343 52H373C378.523 52 383 56.4772 383 62V220.525C383 226.047 378.523 230.525 373 230.525H343C337.477 230.525 333 226.047 333 220.525V62Z" fill="#1B6190"/>
<path d="M333 136.303H383V220.525C383 226.047 378.523 230.525 373 230.525H343C337.477 230.525 333 226.047 333 220.525V136.303Z" fill="#00BCFF"/>
<path d="M405 33C405 27.4772 409.477 23 415 23H445C450.523 23 455 27.4772 455 33V220.525C455 226.047 450.523 230.525 445 230.525H415C409.477 230.525 405 226.047 405 220.525V33Z" fill="#1B6190"/>
<path d="M405 120.998H455V220.525C455 226.048 450.523 230.525 445 230.525H415C409.477 230.525 405 226.048 405 220.525V120.998Z" fill="#00BCFF"/>
<path d="M34.9148 27.8182V54H31.7443V31.142H31.5909L25.1989 35.3864V32.1648L31.7443 27.8182H34.9148ZM50.831 54.358C49.0753 54.358 47.5241 54.0469 46.1776 53.4247C44.8395 52.794 43.7955 51.929 43.0455 50.8295C42.2955 49.7216 41.9247 48.4602 41.9332 47.0455C41.9247 45.9375 42.142 44.9148 42.5852 43.9773C43.0284 43.0312 43.6335 42.2429 44.4006 41.6122C45.1761 40.973 46.0412 40.5682 46.9957 40.3977V40.2443C45.7429 39.9205 44.7457 39.2173 44.0043 38.1349C43.2628 37.044 42.8963 35.804 42.9048 34.4148C42.8963 33.0852 43.233 31.8963 43.9148 30.848C44.5966 29.7997 45.5341 28.973 46.7273 28.3679C47.929 27.7628 49.2969 27.4602 50.831 27.4602C52.348 27.4602 53.7031 27.7628 54.8963 28.3679C56.0895 28.973 57.027 29.7997 57.7088 30.848C58.3991 31.8963 58.7486 33.0852 58.7571 34.4148C58.7486 35.804 58.3693 37.044 57.6193 38.1349C56.8778 39.2173 55.8935 39.9205 54.6662 40.2443V40.3977C55.6122 40.5682 56.4645 40.973 57.223 41.6122C57.9815 42.2429 58.5866 43.0312 59.0384 43.9773C59.4901 44.9148 59.7202 45.9375 59.7287 47.0455C59.7202 48.4602 59.3366 49.7216 58.5781 50.8295C57.8281 51.929 56.7841 52.794 55.446 53.4247C54.1165 54.0469 52.5781 54.358 50.831 54.358ZM50.831 51.5455C52.0156 51.5455 53.0384 51.3537 53.8991 50.9702C54.7599 50.5866 55.4247 50.0455 55.8935 49.3466C56.3622 48.6477 56.6009 47.8295 56.6094 46.892C56.6009 45.9034 56.3452 45.0298 55.8423 44.2713C55.3395 43.5128 54.6534 42.9162 53.7841 42.4815C52.9233 42.0469 51.9389 41.8295 50.831 41.8295C49.7145 41.8295 48.7173 42.0469 47.8395 42.4815C46.9702 42.9162 46.2841 43.5128 45.7812 44.2713C45.2869 45.0298 45.044 45.9034 45.0526 46.892C45.044 47.8295 45.2699 48.6477 45.7301 49.3466C46.1989 50.0455 46.8679 50.5866 47.7372 50.9702C48.6065 51.3537 49.6378 51.5455 50.831 51.5455ZM50.831 39.1193C51.7685 39.1193 52.5994 38.9318 53.3239 38.5568C54.0568 38.1818 54.6321 37.6577 55.0497 36.9844C55.4673 36.3111 55.6804 35.5227 55.6889 34.6193C55.6804 33.733 55.4716 32.9616 55.0625 32.3054C54.6534 31.6406 54.0866 31.1293 53.3622 30.7713C52.6378 30.4048 51.794 30.2216 50.831 30.2216C49.8509 30.2216 48.9943 30.4048 48.2614 30.7713C47.5284 31.1293 46.9616 31.6406 46.5611 32.3054C46.1605 32.9616 45.9645 33.733 45.973 34.6193C45.9645 35.5227 46.1648 36.3111 46.5739 36.9844C46.9915 37.6577 47.5668 38.1818 48.2997 38.5568C49.0327 38.9318 49.8764 39.1193 50.831 39.1193ZM66.0696 54.2045C65.4389 54.2045 64.8977 53.9787 64.446 53.527C63.9943 53.0753 63.7685 52.5341 63.7685 51.9034C63.7685 51.2727 63.9943 50.7315 64.446 50.2798C64.8977 49.8281 65.4389 49.6023 66.0696 49.6023C66.7003 49.6023 67.2415 49.8281 67.6932 50.2798C68.1449 50.7315 68.3707 51.2727 68.3707 51.9034C68.3707 52.321 68.2642 52.7045 68.0511 53.054C67.8466 53.4034 67.5696 53.6847 67.2202 53.8977C66.8793 54.1023 66.4957 54.2045 66.0696 54.2045ZM81.8228 27.4602C82.8967 27.4687 83.9705 27.6733 85.0444 28.0739C86.1183 28.4744 87.0984 29.1392 87.9847 30.0682C88.8711 30.9886 89.5827 32.2457 90.1197 33.8395C90.6566 35.4332 90.9251 37.4318 90.9251 39.8352C90.9251 42.1619 90.7035 44.2287 90.2603 46.0355C89.8256 47.8338 89.195 49.3509 88.3683 50.5866C87.5501 51.8224 86.5529 52.7599 85.3768 53.3991C84.2092 54.0384 82.8881 54.358 81.4137 54.358C79.9478 54.358 78.6396 54.0682 77.489 53.4886C76.3469 52.9006 75.4094 52.0866 74.6765 51.0469C73.9521 49.9986 73.4876 48.7841 73.283 47.4034H76.4023C76.6836 48.6051 77.2418 49.598 78.0771 50.3821C78.9208 51.1577 80.033 51.5455 81.4137 51.5455C83.4336 51.5455 85.0273 50.6634 86.195 48.8991C87.3711 47.1349 87.9592 44.642 87.9592 41.4205H87.7546C87.2773 42.1364 86.7106 42.7543 86.0543 43.2741C85.3981 43.794 84.6694 44.1946 83.8683 44.4759C83.0671 44.7571 82.2148 44.8977 81.3114 44.8977C79.8114 44.8977 78.435 44.527 77.1822 43.7855C75.9379 43.0355 74.9407 42.0085 74.1907 40.7045C73.4492 39.392 73.0785 37.892 73.0785 36.2045C73.0785 34.6023 73.4364 33.1364 74.1523 31.8068C74.8768 30.4687 75.891 29.4034 77.195 28.6108C78.5075 27.8182 80.0501 27.4347 81.8228 27.4602ZM81.8228 30.2727C80.7489 30.2727 79.7816 30.5412 78.9208 31.0781C78.0685 31.6065 77.391 32.3224 76.8881 33.2259C76.3938 34.1207 76.1467 35.1136 76.1467 36.2045C76.1467 37.2955 76.3853 38.2884 76.8626 39.1832C77.3484 40.0696 78.0089 40.777 78.8441 41.3054C79.6879 41.8253 80.6467 42.0852 81.7205 42.0852C82.5302 42.0852 83.2844 41.9276 83.9833 41.6122C84.6822 41.2884 85.2915 40.8494 85.8114 40.2955C86.3398 39.733 86.7532 39.098 87.0515 38.3906C87.3498 37.6747 87.4989 36.929 87.4989 36.1534C87.4989 35.1307 87.2518 34.1719 86.7575 33.277C86.2717 32.3821 85.5984 31.6577 84.7376 31.1037C83.8853 30.5497 82.9137 30.2727 81.8228 30.2727ZM96.4126 54V27.8182H99.5831V40.8068H99.8899L111.651 27.8182H115.793L104.799 39.6307L115.793 54H111.958L102.856 41.8295L99.5831 45.5114V54H96.4126Z" fill="#00BCFF"/>
<path d="M123 29L128.196 38H117.804L123 29Z" fill="#00BCFF"/>
</svg>
