<svg width="500" height="250" viewBox="0 0 500 250" fill="none" xmlns="http://www.w3.org/2000/svg">
<rect width="500" height="250" rx="40" fill="#235D5F"/>
<path d="M27 68C27 56.9543 35.9543 48 47 48H480C491.046 48 500 56.9543 500 68V100H47C35.9543 100 27 91.0457 27 80V68Z" fill="white"/>
<path d="M56 68C56.5523 68 57 67.5523 57 67C57 66.4477 56.5523 66 56 66C55.4477 66 55 66.4477 55 67C55 67.5523 55.4477 68 56 68Z" stroke="black" stroke-width="2" stroke-linecap="round" stroke-linejoin="round"/>
<path d="M63 68C63.5523 68 64 67.5523 64 67C64 66.4477 63.5523 66 63 66C62.4477 66 62 66.4477 62 67C62 67.5523 62.4477 68 63 68Z" stroke="black" stroke-width="2" stroke-linecap="round" stroke-linejoin="round"/>
<path d="M49 68C49.5523 68 50 67.5523 50 67C50 66.4477 49.5523 66 49 66C48.4477 66 48 66.4477 48 67C48 67.5523 48.4477 68 49 68Z" stroke="black" stroke-width="2" stroke-linecap="round" stroke-linejoin="round"/>
<path d="M56 75C56.5523 75 57 74.5523 57 74C57 73.4477 56.5523 73 56 73C55.4477 73 55 73.4477 55 74C55 74.5523 55.4477 75 56 75Z" stroke="black" stroke-width="2" stroke-linecap="round" stroke-linejoin="round"/>
<path d="M63 75C63.5523 75 64 74.5523 64 74C64 73.4477 63.5523 73 63 73C62.4477 73 62 73.4477 62 74C62 74.5523 62.4477 75 63 75Z" stroke="black" stroke-width="2" stroke-linecap="round" stroke-linejoin="round"/>
<path d="M49 75C49.5523 75 50 74.5523 50 74C50 73.4477 49.5523 73 49 73C48.4477 73 48 73.4477 48 74C48 74.5523 48.4477 75 49 75Z" stroke="black" stroke-width="2" stroke-linecap="round" stroke-linejoin="round"/>
<path d="M56 82C56.5523 82 57 81.5523 57 81C57 80.4477 56.5523 80 56 80C55.4477 80 55 80.4477 55 81C55 81.5523 55.4477 82 56 82Z" stroke="black" stroke-width="2" stroke-linecap="round" stroke-linejoin="round"/>
<path d="M63 82C63.5523 82 64 81.5523 64 81C64 80.4477 63.5523 80 63 80C62.4477 80 62 80.4477 62 81C62 81.5523 62.4477 82 63 82Z" stroke="black" stroke-width="2" stroke-linecap="round" stroke-linejoin="round"/>
<path d="M49 82C49.5523 82 50 81.5523 50 81C50 80.4477 49.5523 80 49 80C48.4477 80 48 80.4477 48 81C48 81.5523 48.4477 82 49 82Z" stroke="black" stroke-width="2" stroke-linecap="round" stroke-linejoin="round"/>
<path d="M64 102C64 90.9543 72.9543 82 84 82H480C491.046 82 500 90.9543 500 102V134H84C72.9543 134 64 125.046 64 114V102Z" fill="#E4E4E4"/>
<path d="M93 102C93.5523 102 94 101.552 94 101C94 100.448 93.5523 100 93 100C92.4477 100 92 100.448 92 101C92 101.552 92.4477 102 93 102Z" fill="#E4E4E4"/>
<path d="M100 102C100.552 102 101 101.552 101 101C101 100.448 100.552 100 100 100C99.4477 100 99 100.448 99 101C99 101.552 99.4477 102 100 102Z" fill="#E4E4E4"/>
<path d="M86 102C86.5523 102 87 101.552 87 101C87 100.448 86.5523 100 86 100C85.4477 100 85 100.448 85 101C85 101.552 85.4477 102 86 102Z" fill="#E4E4E4"/>
<path d="M93 109C93.5523 109 94 108.552 94 108C94 107.448 93.5523 107 93 107C92.4477 107 92 107.448 92 108C92 108.552 92.4477 109 93 109Z" fill="#E4E4E4"/>
<path d="M100 109C100.552 109 101 108.552 101 108C101 107.448 100.552 107 100 107C99.4477 107 99 107.448 99 108C99 108.552 99.4477 109 100 109Z" fill="#E4E4E4"/>
<path d="M86 109C86.5523 109 87 108.552 87 108C87 107.448 86.5523 107 86 107C85.4477 107 85 107.448 85 108C85 108.552 85.4477 109 86 109Z" fill="#E4E4E4"/>
<path d="M93 116C93.5523 116 94 115.552 94 115C94 114.448 93.5523 114 93 114C92.4477 114 92 114.448 92 115C92 115.552 92.4477 116 93 116Z" fill="#E4E4E4"/>
<path d="M100 116C100.552 116 101 115.552 101 115C101 114.448 100.552 114 100 114C99.4477 114 99 114.448 99 115C99 115.552 99.4477 116 100 116Z" fill="#E4E4E4"/>
<path d="M86 116C86.5523 116 87 115.552 87 115C87 114.448 86.5523 114 86 114C85.4477 114 85 114.448 85 115C85 115.552 85.4477 116 86 116Z" fill="#E4E4E4"/>
<path d="M93 102C93.5523 102 94 101.552 94 101C94 100.448 93.5523 100 93 100C92.4477 100 92 100.448 92 101C92 101.552 92.4477 102 93 102Z" stroke="black" stroke-width="2" stroke-linecap="round" stroke-linejoin="round"/>
<path d="M100 102C100.552 102 101 101.552 101 101C101 100.448 100.552 100 100 100C99.4477 100 99 100.448 99 101C99 101.552 99.4477 102 100 102Z" stroke="black" stroke-width="2" stroke-linecap="round" stroke-linejoin="round"/>
<path d="M86 102C86.5523 102 87 101.552 87 101C87 100.448 86.5523 100 86 100C85.4477 100 85 100.448 85 101C85 101.552 85.4477 102 86 102Z" stroke="black" stroke-width="2" stroke-linecap="round" stroke-linejoin="round"/>
<path d="M93 109C93.5523 109 94 108.552 94 108C94 107.448 93.5523 107 93 107C92.4477 107 92 107.448 92 108C92 108.552 92.4477 109 93 109Z" stroke="black" stroke-width="2" stroke-linecap="round" stroke-linejoin="round"/>
<path d="M100 109C100.552 109 101 108.552 101 108C101 107.448 100.552 107 100 107C99.4477 107 99 107.448 99 108C99 108.552 99.4477 109 100 109Z" stroke="black" stroke-width="2" stroke-linecap="round" stroke-linejoin="round"/>
<path d="M86 109C86.5523 109 87 108.552 87 108C87 107.448 86.5523 107 86 107C85.4477 107 85 107.448 85 108C85 108.552 85.4477 109 86 109Z" stroke="black" stroke-width="2" stroke-linecap="round" stroke-linejoin="round"/>
<path d="M93 116C93.5523 116 94 115.552 94 115C94 114.448 93.5523 114 93 114C92.4477 114 92 114.448 92 115C92 115.552 92.4477 116 93 116Z" stroke="black" stroke-width="2" stroke-linecap="round" stroke-linejoin="round"/>
<path d="M100 116C100.552 116 101 115.552 101 115C101 114.448 100.552 114 100 114C99.4477 114 99 114.448 99 115C99 115.552 99.4477 116 100 116Z" stroke="black" stroke-width="2" stroke-linecap="round" stroke-linejoin="round"/>
<path d="M86 116C86.5523 116 87 115.552 87 115C87 114.448 86.5523 114 86 114C85.4477 114 85 114.448 85 115C85 115.552 85.4477 116 86 116Z" stroke="black" stroke-width="2" stroke-linecap="round" stroke-linejoin="round"/>
<path d="M101 136C101 124.954 109.954 116 121 116H480C491.046 116 500 124.954 500 136V168H121C109.954 168 101 159.046 101 148V136Z" fill="white"/>
<path d="M130 136C130.552 136 131 135.552 131 135C131 134.448 130.552 134 130 134C129.448 134 129 134.448 129 135C129 135.552 129.448 136 130 136Z" stroke="black" stroke-width="2" stroke-linecap="round" stroke-linejoin="round"/>
<path d="M137 136C137.552 136 138 135.552 138 135C138 134.448 137.552 134 137 134C136.448 134 136 134.448 136 135C136 135.552 136.448 136 137 136Z" stroke="black" stroke-width="2" stroke-linecap="round" stroke-linejoin="round"/>
<path d="M123 136C123.552 136 124 135.552 124 135C124 134.448 123.552 134 123 134C122.448 134 122 134.448 122 135C122 135.552 122.448 136 123 136Z" stroke="black" stroke-width="2" stroke-linecap="round" stroke-linejoin="round"/>
<path d="M130 143C130.552 143 131 142.552 131 142C131 141.448 130.552 141 130 141C129.448 141 129 141.448 129 142C129 142.552 129.448 143 130 143Z" stroke="black" stroke-width="2" stroke-linecap="round" stroke-linejoin="round"/>
<path d="M137 143C137.552 143 138 142.552 138 142C138 141.448 137.552 141 137 141C136.448 141 136 141.448 136 142C136 142.552 136.448 143 137 143Z" stroke="black" stroke-width="2" stroke-linecap="round" stroke-linejoin="round"/>
<path d="M123 143C123.552 143 124 142.552 124 142C124 141.448 123.552 141 123 141C122.448 141 122 141.448 122 142C122 142.552 122.448 143 123 143Z" stroke="black" stroke-width="2" stroke-linecap="round" stroke-linejoin="round"/>
<path d="M130 150C130.552 150 131 149.552 131 149C131 148.448 130.552 148 130 148C129.448 148 129 148.448 129 149C129 149.552 129.448 150 130 150Z" stroke="black" stroke-width="2" stroke-linecap="round" stroke-linejoin="round"/>
<path d="M137 150C137.552 150 138 149.552 138 149C138 148.448 137.552 148 137 148C136.448 148 136 148.448 136 149C136 149.552 136.448 150 137 150Z" stroke="black" stroke-width="2" stroke-linecap="round" stroke-linejoin="round"/>
<path d="M123 150C123.552 150 124 149.552 124 149C124 148.448 123.552 148 123 148C122.448 148 122 148.448 122 149C122 149.552 122.448 150 123 150Z" stroke="black" stroke-width="2" stroke-linecap="round" stroke-linejoin="round"/>
<path d="M138 170C138 158.954 146.954 150 158 150H480C491.046 150 500 158.954 500 170V194C500 198.418 496.418 202 492 202H158C146.954 202 138 193.046 138 182V170Z" fill="#E4E4E4"/>
<path d="M167 170C167.552 170 168 169.552 168 169C168 168.448 167.552 168 167 168C166.448 168 166 168.448 166 169C166 169.552 166.448 170 167 170Z" fill="#DADADA"/>
<path d="M174 170C174.552 170 175 169.552 175 169C175 168.448 174.552 168 174 168C173.448 168 173 168.448 173 169C173 169.552 173.448 170 174 170Z" fill="#DADADA"/>
<path d="M160 170C160.552 170 161 169.552 161 169C161 168.448 160.552 168 160 168C159.448 168 159 168.448 159 169C159 169.552 159.448 170 160 170Z" fill="#DADADA"/>
<path d="M167 177C167.552 177 168 176.552 168 176C168 175.448 167.552 175 167 175C166.448 175 166 175.448 166 176C166 176.552 166.448 177 167 177Z" fill="#DADADA"/>
<path d="M174 177C174.552 177 175 176.552 175 176C175 175.448 174.552 175 174 175C173.448 175 173 175.448 173 176C173 176.552 173.448 177 174 177Z" fill="#DADADA"/>
<path d="M160 177C160.552 177 161 176.552 161 176C161 175.448 160.552 175 160 175C159.448 175 159 175.448 159 176C159 176.552 159.448 177 160 177Z" fill="#DADADA"/>
<path d="M167 184C167.552 184 168 183.552 168 183C168 182.448 167.552 182 167 182C166.448 182 166 182.448 166 183C166 183.552 166.448 184 167 184Z" fill="#DADADA"/>
<path d="M174 184C174.552 184 175 183.552 175 183C175 182.448 174.552 182 174 182C173.448 182 173 182.448 173 183C173 183.552 173.448 184 174 184Z" fill="#DADADA"/>
<path d="M160 184C160.552 184 161 183.552 161 183C161 182.448 160.552 182 160 182C159.448 182 159 182.448 159 183C159 183.552 159.448 184 160 184Z" fill="#DADADA"/>
<path d="M167 170C167.552 170 168 169.552 168 169C168 168.448 167.552 168 167 168C166.448 168 166 168.448 166 169C166 169.552 166.448 170 167 170Z" stroke="black" stroke-width="2" stroke-linecap="round" stroke-linejoin="round"/>
<path d="M174 170C174.552 170 175 169.552 175 169C175 168.448 174.552 168 174 168C173.448 168 173 168.448 173 169C173 169.552 173.448 170 174 170Z" stroke="black" stroke-width="2" stroke-linecap="round" stroke-linejoin="round"/>
<path d="M160 170C160.552 170 161 169.552 161 169C161 168.448 160.552 168 160 168C159.448 168 159 168.448 159 169C159 169.552 159.448 170 160 170Z" stroke="black" stroke-width="2" stroke-linecap="round" stroke-linejoin="round"/>
<path d="M167 177C167.552 177 168 176.552 168 176C168 175.448 167.552 175 167 175C166.448 175 166 175.448 166 176C166 176.552 166.448 177 167 177Z" stroke="black" stroke-width="2" stroke-linecap="round" stroke-linejoin="round"/>
<path d="M174 177C174.552 177 175 176.552 175 176C175 175.448 174.552 175 174 175C173.448 175 173 175.448 173 176C173 176.552 173.448 177 174 177Z" stroke="black" stroke-width="2" stroke-linecap="round" stroke-linejoin="round"/>
<path d="M160 177C160.552 177 161 176.552 161 176C161 175.448 160.552 175 160 175C159.448 175 159 175.448 159 176C159 176.552 159.448 177 160 177Z" stroke="black" stroke-width="2" stroke-linecap="round" stroke-linejoin="round"/>
<path d="M167 184C167.552 184 168 183.552 168 183C168 182.448 167.552 182 167 182C166.448 182 166 182.448 166 183C166 183.552 166.448 184 167 184Z" stroke="black" stroke-width="2" stroke-linecap="round" stroke-linejoin="round"/>
<path d="M174 184C174.552 184 175 183.552 175 183C175 182.448 174.552 182 174 182C173.448 182 173 182.448 173 183C173 183.552 173.448 184 174 184Z" stroke="black" stroke-width="2" stroke-linecap="round" stroke-linejoin="round"/>
<path d="M160 184C160.552 184 161 183.552 161 183C161 182.448 160.552 182 160 182C159.448 182 159 182.448 159 183C159 183.552 159.448 184 160 184Z" stroke="black" stroke-width="2" stroke-linecap="round" stroke-linejoin="round"/>
</svg>
