<?xml version="1.0" encoding="UTF-8"?>
<svg id="Camada_1" data-name="Camada 1" xmlns="http://www.w3.org/2000/svg" viewBox="0 0 1426.87 287.72">
  <g>
    <path d="M386.44,266.13V47.94h138.73c47.22,0,70.67,18.56,70.67,52.76,0,28.01-14.65,47.87-54.38,49.5v3.26c43.64,1.63,64.48,21.82,64.48,52.1,0,36.8-21.17,60.57-73.27,60.57h-146.22ZM447.33,130.66h71.32c12.37,0,15.96-3.58,15.96-13.68s-4.88-14-17.59-14h-69.69v27.68ZM447.33,211.09h77.51c14.65,0,19.21-2.93,19.21-15.31s-4.23-14.98-19.21-14.98h-77.51v30.29Z"/>
    <path d="M618.95,266.13V47.94h61.22v218.19h-61.22Z"/>
    <path d="M696.45,157.04c0-68.06,44.94-112.35,120.82-112.35s122.12,44.29,122.12,112.35-44.29,112.35-122.12,112.35-120.82-44.29-120.82-112.35ZM874.25,157.04c0-43.31-12.7-53.73-56.99-53.73s-55.69,10.42-55.69,53.73,11.4,53.73,55.69,53.73,56.99-10.42,56.99-53.73Z"/>
    <path d="M955.66,266.13V47.94h65.13l60.57,81.74,31.91,50.15h4.23l-2.93-47.55V47.94h61.22v218.19h-65.13l-64.48-84.02-27.68-42.99h-4.23l2.61,41.68v85.32h-61.22Z"/>
    <path d="M1195.33,266.13V47.94h61.22v81.09h43.96l53.08-81.09h73.27l-75.55,107.14,73.92,111.05h-73.27l-50.8-77.5h-44.61v77.5h-61.22Z"/>
  </g>
  <path d="M105.46,151.03c-5.93-3.03-9.27-5.12-14.13-9.59-7.66-6.75-12.87-15.79-15.86-25.48-1.3-4.23-2.2-8.97-3.01-13.31-1.28-6.94-2.02-13.37-8.88-17.14-5.63-3.1-8.29,2.55-13.32,1.11-2.44-.71-2.94-5.63-1.78-7.42,2.08-3.22,6.46-5.8,10.07-6.82,5.78-1.62,11.97-.88,17.2,2.07,4.72,2.7,8.23,7.04,10.64,11.88.59,1.19,1.4,3.63,2.04,4.51-.25-2.84-1.2-5.72-1.48-8.72C82.95,38.14,114.76,3.83,158.41.32c21.63-1.91,43.13,4.86,59.75,18.83,17.86,15.2,27.11,38.7,25.24,61.86-.18,2.23-.61,4.39-.89,6.59l.08-.13c.86-1.49,1.39-3.18,2.3-4.66,6.78-11.04,22.49-15.3,32.93-6.83,1.69,1.36,3.06,2.73,3.67,4.94.39,1.39.18,2.87-.59,4.09-3.59,5.64-8.78-3.31-15.94,1-1.54.93-2.87,2.16-3.94,3.6-3.35,4.62-4.35,15.88-5.75,21.7-2.83,11.75-7.56,21.03-16.37,29.4-4.6,4.37-8.26,7.42-14.26,9.81,9.32,9.85,22.78,11.42,33.45,1.89,12.05-10.76,9.59-27.56,19.29-39.36,7.7-9.37,23.57-11.18,33.95-5.41,1.36.76,2.97,2.53,4.55,3.26,2.82,3.08,5.58,7.23,5.77,11.51.1,2.19-2.68,4.02-4.58,3.65-6.07-1.38-7.85-6.07-14.92-4.87-4.64.79-9.5,4.72-10.93,9.17-2.7,8.41-2.68,16.89-6.05,25.41-4.46,11.04-13.07,19.88-23.99,24.61-11.23,4.75-21.3,5.22-33.12,2.21-.53.55-.67.7-1.29,1.11,8.35,9.42,14.97,18.85,28.81,19.6,12.13.65,18.3-4.14,27.54-10.72,7.89-5.62,17.95-9.15,27.77-7.19,5.39,1.04,10.29,3.81,13.95,7.9,3.71,4.16,5.95,9.98,4.66,15.54-4.5,5.08-8.16.87-11.26-2.89-1.44-1.75-4.52-3.77-6.77-4.21-2.08-.65-5.12-.72-7.15,0-5.16.94-10.38,6.83-14.06,10.31-12.44,11.76-26.39,18.02-43.8,16.17-18.69-1.99-33.66-13.56-43.54-29.16-.33-.53-1.01-1.37-1.63-1.46-1.81.98-.67,4.15-.59,5.75.75,14.8,6.41,28.54,19.02,37.02,3.8,2.36,9.29,4.83,13.58,5.93,12.64,3.27,27.78,4.22,32.7,18.87,2.4,7.15,1.79,18.42-5.99,22.28-1.51.75-3.61-.08-4.98-.79-.74-1.3-.88-1.62-1.32-3.03,1.04-4.11,2.43-7.31-.35-11.17-4.01-5.58-9.8-5.78-16.07-5.95l-8.33-.2c-34.48-.94-54.17-25.58-61.58-57.29-.3-1.29-.84-5.53-2.41-5.61-1.17.69-1.9,5.31-2.31,6.84-1.82,6.73-4.18,13.2-7.04,19.51-9.55,21.04-28.13,35.53-51.57,36.48-6.51.61-15.16-.47-21.3,1.67-5.45,1.9-9.12,7.89-6.84,13.46.69,1.71.18,3.53-.55,5.1-2.87,2.06-6.57,1.38-8.68-1.42-3.28-4.33-4.27-9.54-3.73-14.84,1.45-14.12,13.71-20.01,26.23-22.05,7.44-1.31,16.33-3.96,22.41-8.53,11.34-8.53,16.58-20.66,17.79-34.56.2-1.95.27-3.94.47-5.95l-1.14-1.65c-1.5,1.76-2.83,3.96-4.32,5.84-6.4,8.08-14,15.19-23.27,19.99-12.94,6.7-29.67,6.8-43.04,1.11-5.83-2.47-10.37-5.95-15.28-9.8-6.24-4.89-9.73-10.66-17.62-13.07-1.73-.51-4.5-.41-6.18.18-5.96,1.36-7.42,5.23-11.64,8.93-1.26.79-4.09.4-5.16-.32-4.46-2.99-1.05-11.01,1-14.5,3.12-5.32,9.73-9.07,15.55-10.41,9.3-2.14,19.04.92,26.59,6.42,7.34,5.16,12.07,9.2,21.24,10.97,3.98.75,8.06.75,12.03,0,10.07-1.98,17.2-10.23,23.7-17.64.22-.26.67-1.04.93-1.4-.32-.13-1.33-.55-1.58-.55-3.75.06-7.68,1.19-11.47,1.25-19.58.32-37.17-9.74-44.86-28.1-1.27-3.03-2.16-6.01-2.91-9.32-2.03-8.88-1.45-20.43-11.06-24.93-2.96-1.35-7.39-1.42-10.33-.18-3.43,1.46-5.63,5.51-10.02,3.75-3.89-1.56-2.56-5.95-1.37-8.73,2.39-5.55,7.33-8.78,12.77-10.92,6.46-2.48,14.67-2.29,21.08.47,8.02,3.45,12.17,10.33,15.36,18.13.63,1.54,1.48,4.63,1.93,6.28,2.13,7.68,4.58,15.24,10.66,20.79,1.85,1.69,4.36,3.8,6.7,4.79,6.1,2.6,12.03,3.3,18.28.78,4.15-1.67,5.81-3.35,9.05-6.27h0Z"/>
</svg>