<?xml version="1.0" encoding="UTF-8"?>
<svg id="Camada_1_cópia" data-name="Camada 1 cópia" xmlns="http://www.w3.org/2000/svg" viewBox="0 0 1500 1500">
  <defs>
    <style>
      .cls-1 {
        fill: #fff;
      }

      .cls-2 {
        fill: #ad4cf4;
      }
    </style>
  </defs>
  <path class="cls-2" d="M700,0h600c110.38,0,200,89.62,200,200v600c0,386.34-313.66,700-700,700H200c-110.38,0-200-89.62-200-200v-600C0,313.66,313.66,0,700,0Z"/>
  <path class="cls-1" d="M561.58,785.2c-18.78-9.61-29.35-16.22-44.74-30.37-24.26-21.36-40.76-50-50.22-80.7-4.12-13.38-6.99-28.4-9.52-42.15-4.05-21.96-6.41-42.35-28.11-54.3-17.83-9.81-26.23,8.1-42.19,3.53-7.72-2.27-9.31-17.83-5.63-23.5,6.61-10.19,20.47-18.37,31.91-21.61,18.31-5.14,37.9-2.78,54.47,6.56,14.94,8.54,26.06,22.32,33.7,37.62,1.89,3.79,4.45,11.49,6.46,14.29-.79-9-3.81-18.1-4.67-27.63-12.7-139.3,88.06-247.95,226.27-259.07,68.51-6.06,136.61,15.4,189.27,59.63,56.59,48.15,85.88,122.57,79.95,195.93-.57,7.06-1.94,13.9-2.81,20.88l.25-.43c2.74-4.73,4.4-10.08,7.28-14.77,21.49-34.96,71.23-48.44,104.31-21.62,5.33,4.32,9.7,8.65,11.62,15.64,1.23,4.39.55,9.09-1.86,12.96-11.37,17.87-27.82-10.48-50.49,3.15-4.86,2.96-9.1,6.83-12.48,11.41-10.62,14.63-13.78,50.3-18.22,68.74-8.96,37.22-23.94,66.59-51.85,93.1-14.58,13.84-26.19,23.51-45.15,31.07,29.51,31.18,72.14,36.18,105.95,5.98,38.15-34.07,30.36-87.28,61.1-124.67,24.39-29.67,74.66-35.41,107.52-17.16,4.32,2.41,9.39,8.01,14.4,10.32,8.94,9.77,17.67,22.9,18.28,36.45.31,6.94-8.47,12.76-14.53,11.55-19.21-4.39-24.84-19.24-47.25-15.42-14.68,2.5-30.08,14.95-34.61,29.06-8.54,26.62-8.5,53.48-19.15,80.47-14.1,34.96-41.4,62.97-75.99,77.96-35.57,15.05-67.46,16.55-104.89,7-1.7,1.72-2.11,2.22-4.1,3.51,26.46,29.82,47.41,59.7,91.26,62.06,38.43,2.07,57.96-13.12,87.22-33.94,25.01-17.81,56.87-28.96,87.96-22.79,17.07,3.28,32.59,12.07,44.19,25.02,11.74,13.17,18.83,31.59,14.76,49.22-14.27,16.1-25.83,2.75-35.66-9.13-4.57-5.53-14.32-11.93-21.46-13.33-6.6-2.06-16.22-2.28-22.65.02-16.34,2.97-32.88,21.63-44.52,32.64-39.38,37.26-83.57,57.07-138.74,51.2-59.19-6.3-106.61-42.94-137.89-92.37-1.06-1.67-3.2-4.33-5.16-4.63-5.73,3.12-2.12,13.15-1.86,18.22,2.38,46.87,20.31,90.37,60.23,117.27,12.02,7.48,29.43,15.29,43.03,18.8,40.03,10.34,87.98,13.36,103.56,59.75,7.61,22.66,5.67,58.36-18.99,70.57-4.78,2.37-11.45-.26-15.76-2.5-2.36-4.13-2.8-5.13-4.18-9.58,3.28-13.03,7.68-23.16-1.1-35.39-12.7-17.69-31.03-18.32-50.89-18.84l-26.4-.65c-109.19-2.97-171.57-81.03-195.05-181.46-.96-4.09-2.68-17.54-7.64-17.75-3.7,2.17-6.02,16.81-7.33,21.67-5.76,21.32-13.23,41.8-22.29,61.78-30.23,66.64-89.1,112.55-163.33,115.56-20.61,1.92-48.01-1.5-67.48,5.3-17.25,6.03-28.89,24.99-21.68,42.61,2.21,5.4.58,11.16-1.76,16.17-9.07,6.51-20.79,4.37-27.48-4.48-10.38-13.74-13.54-30.21-11.82-46.98,4.58-44.7,43.4-63.39,83.07-69.84,23.58-4.17,51.73-12.53,70.98-27.02,35.9-27.01,52.53-65.43,56.34-109.46.64-6.2.85-12.49,1.5-18.86l-3.61-5.22c-4.75,5.57-8.97,12.55-13.69,18.51-20.26,25.6-44.35,48.12-73.7,63.31-41,21.23-93.97,21.51-136.3,3.52-18.46-7.85-32.85-18.83-48.41-31.02-19.77-15.5-30.82-33.77-55.81-41.4-5.49-1.63-14.25-1.31-19.58.57-18.88,4.29-23.48,16.57-36.86,28.28-3.99,2.5-12.96,1.26-16.34-1.01-14.13-9.48-3.32-34.86,3.18-45.94,9.89-16.84,30.81-28.72,49.23-32.96,29.44-6.77,60.33,2.93,84.22,20.34,23.25,16.37,38.22,29.15,67.28,34.74,12.6,2.37,25.52,2.36,38.12,0,31.9-6.26,54.48-32.41,75.07-55.88.71-.81,2.11-3.28,2.96-4.42-1.03-.43-4.21-1.74-5.02-1.73-11.86.19-24.33,3.76-36.35,3.96-62,1.01-117.74-30.85-142.09-89.01-4.02-9.61-6.85-19.04-9.23-29.5-6.42-28.12-4.58-64.72-35.02-78.96-9.38-4.28-23.4-4.51-32.74-.55-10.87,4.61-17.83,17.47-31.74,11.87-12.32-4.96-8.12-18.83-4.33-27.65,7.56-17.59,23.23-27.81,40.46-34.58,20.47-7.86,46.46-7.25,66.76,1.49,25.38,10.93,38.57,32.72,48.64,57.41,2,4.89,4.67,14.67,6.12,19.91,6.75,24.33,14.53,48.27,33.75,65.86,5.84,5.34,13.82,12.02,21.23,15.17,19.32,8.23,38.11,10.44,57.89,2.47,13.14-5.29,18.41-10.62,28.67-19.85Z"/>
</svg>