<?xml version="1.0" encoding="UTF-8"?>
<svg id="Camada_1" data-name="Camada 1" xmlns="http://www.w3.org/2000/svg" viewBox="0 0 1505.01 325.03">
  <defs>
    <style>
      .cls-1 {
        fill: #ad4cf4;
      }
    </style>
  </defs>
  <path class="cls-1" d="M0,320.32V4.71h200.67c68.3,0,102.22,26.85,102.22,76.31,0,40.51-21.2,69.24-78.67,71.6v4.71c63.12,2.35,93.27,31.56,93.27,75.37,0,53.23-30.62,87.62-105.99,87.62H0ZM88.09,124.36h103.16c17.9,0,23.08-5.18,23.08-19.78s-7.07-20.26-25.44-20.26h-100.81v40.04ZM88.09,240.71h112.11c21.2,0,27.79-4.24,27.79-22.14s-6.12-21.67-27.79-21.67h-112.11v43.81Z"/>
  <path class="cls-1" d="M336.33,320.32V4.71h88.56v315.61h-88.56Z"/>
  <path class="cls-1" d="M448.44,162.51C448.44,64.06,513.44,0,623.2,0s176.65,64.06,176.65,162.51-64.06,162.51-176.65,162.51-174.76-64.06-174.76-162.51ZM705.63,162.51c0-62.65-18.37-77.72-82.43-77.72s-80.55,15.07-80.55,77.72,16.49,77.72,80.55,77.72,82.43-15.07,82.43-77.72Z"/>
  <path d="M823.4,320.32V4.71h94.21l87.62,118.23,46.16,72.54h6.12l-4.24-68.77V4.71h88.56v315.61h-94.21l-93.27-121.53-40.04-62.18h-6.12l3.77,60.29v123.42h-88.56Z"/>
  <path d="M1170.09,320.32V4.71h88.56v117.29h63.59l76.78-117.29h105.99l-109.28,154.98,106.93,160.63h-105.99l-73.48-112.11h-64.54v112.11h-88.56Z"/>
</svg>