<?xml version="1.0" encoding="UTF-8"?>
<svg id="Camada_1" xmlns="http://www.w3.org/2000/svg" version="1.1" viewBox="0 0 24 24">
  <!-- Generator: Adobe Illustrator 29.7.1, SVG Export Plug-In . SVG Version: 2.1.1 Build 8)  -->
  <path d="M6.06,23.95c-1.8,0-3.25,0-4.33-.02l.02-1.24c1.29-.42,1.94-1.81,1.94-4.18V5.31c-.01-1.23-.2-2.17-.58-2.84-.38-.66-.83-1.05-1.36-1.16V.07h4.1l1.64-.02c1.67,0,3.46.03,5.36.08,1.25,0,2.48.35,3.7,1.06,1.22.71,2.13,1.64,2.74,2.8.4.84.6,1.71.6,2.6v.07c-.07,2.09-.98,3.7-2.75,4.83,1.53.44,2.76,1.23,3.71,2.36.95,1.13,1.42,2.49,1.44,4.08-.06,1.76-.64,3.17-1.77,4.22s-2.56,1.62-4.31,1.7c-.66.02-3.05.05-7.17.08h-2.97s0,0,0,0ZM11.6,11.07c.66-.14,1.28-.53,1.86-1.16.6-.66.9-1.81.9-3.45,0-1.46-.25-2.64-.75-3.53-.54-.98-1.58-1.51-3.1-1.58h-1.31v9.89h1.06c.32,0,.77-.05,1.34-.17h0s0,0,0,0ZM12.42,22.67c1.18-.04,2.19-.51,3.02-1.4.83-.89,1.27-1.99,1.31-3.31-.01-1.5-.3-2.66-.85-3.46-.56-.8-1.19-1.34-1.91-1.61s-1.34-.41-1.88-.41h-2.9v10.2h.76c1,0,1.81,0,2.46-.02h0Z"/>
</svg>