<?xml version="1.0" encoding="UTF-8"?>
<svg id="Camada_1" xmlns="http://www.w3.org/2000/svg" version="1.1" viewBox="0 0 1500 1500">
  <!-- Generator: Adobe Illustrator 29.7.1, SVG Export Plug-In . SVG Version: 2.1.1 Build 8)  -->
  <defs>
    <style>
      .st0 {
        fill: #fff;
      }
    </style>
  </defs>
  <path d="M700,0h600c110.38,0,200,89.62,200,200v600c0,386.34-313.66,700-700,700H200c-110.38,0-200-89.62-200-200v-600C0,313.66,313.66,0,700,0Z"/>
  <path class="st0" d="M578.77,1152.01c-61.98,0-111.61-.19-148.86-.58l.58-42.77c44.47-14.44,66.72-62.34,66.72-143.72v-453.41c-.38-42.19-7.03-74.7-19.95-97.52-12.94-22.81-28.52-36.11-46.77-39.92v-42.78h140.86l56.47-.56c57.41,0,118.8.95,184.2,2.84,42.97,0,85.36,12.17,127.19,36.5,41.81,24.34,73.19,56.47,94.09,96.39,13.69,28.91,20.53,58.75,20.53,89.53v2.28c-2.28,71.88-33.84,127.19-94.67,165.97,52.47,15.22,94.95,42.2,127.47,80.98,32.5,38.78,48.95,85.55,49.33,140.3-1.91,60.45-22.14,108.83-60.73,145.14s-87.94,55.8-148,58.45c-22.81.77-104.94,1.72-246.38,2.86h-102.08v.02ZM769.26,709.45c22.81-4.94,44.09-18.25,63.88-39.92,20.53-22.81,30.8-62.34,30.8-118.62,0-50.19-8.56-90.67-25.67-121.48-18.62-33.83-54.17-51.89-106.64-54.17h-45.06v339.91h36.5c11.03,0,26.42-1.89,46.2-5.7v-.02ZM797.2,1108.09c40.69-1.52,75.28-17.58,103.8-48.19,28.52-30.59,43.53-68.53,45.06-113.78-.39-51.7-10.19-91.34-29.38-118.91-19.2-27.56-41.06-46-65.59-55.31s-46.09-13.98-64.72-13.98h-99.81v350.75h26.23c34.22,0,62.34-.19,84.41-.58h0Z"/>
</svg>