<?xml version="1.0" encoding="UTF-8"?>
<svg id="Camada_2" data-name="Camada 2" xmlns="http://www.w3.org/2000/svg" viewBox="0 0 1551.2 449.09">
  <defs>
    <style>
      .cls-1 {
        isolation: isolate;
      }

      .cls-2 {
        fill: #05df72;
      }
    </style>
  </defs>
  <g class="cls-1">
    <g class="cls-1">
      <path class="cls-2" d="M73.72,449.09c-30.69,0-55.27-.09-73.72-.28l.28-21.18c22.03-7.15,33.05-30.88,33.05-71.18v-224.54c-.19-20.9-3.49-37-9.89-48.3-6.4-11.3-14.12-17.89-23.16-19.77v-21.18h69.76l27.96-.28c28.43,0,58.84.47,91.23,1.41,21.28,0,42.27,6.03,62.99,18.08,20.71,12.05,36.25,27.96,46.6,47.73,6.78,14.31,10.17,29.09,10.17,44.34v1.13c-1.13,35.59-16.76,62.99-46.89,82.19,25.98,7.53,47.03,20.9,63.13,40.11,16.1,19.21,24.24,42.37,24.43,69.48-.94,29.94-10.97,53.9-30.08,71.88-19.11,17.98-43.55,27.64-73.29,28.95-11.3.38-51.97.85-122.02,1.41h-50.56ZM168.06,229.91c11.3-2.45,21.84-9.04,31.63-19.77,10.17-11.3,15.25-30.88,15.25-58.75,0-24.85-4.24-44.91-12.71-60.16-9.23-16.76-26.83-25.7-52.82-26.83h-22.31v168.34h18.08c5.46,0,13.09-.94,22.88-2.82ZM181.9,427.34c20.15-.75,37.28-8.71,51.41-23.87,14.12-15.16,21.56-33.94,22.31-56.35-.19-25.61-5.04-45.24-14.55-58.89-9.51-13.65-20.34-22.78-32.48-27.4-12.15-4.61-22.83-6.92-32.06-6.92h-49.43v173.7h12.99c16.95,0,30.88-.09,41.8-.28Z"/>
      <path class="cls-2" d="M354.47,449.09l.28-21.18c15.82-4.89,25.89-18.64,30.22-41.24,1.88-9.98,2.82-19.96,2.82-29.94v-34.74l-.28-11.86v-40.67c-.19-21.09-3.49-37.28-9.89-48.58-6.4-11.3-14.12-17.79-23.16-19.49v-21.47c18.64-2.82,35.87-7.67,51.69-14.55,15.82-6.87,31.44-14.73,46.89-23.58,3.95-2.26,7.2-3.48,9.74-3.67,2.54-.19,4.1-.28,4.66-.28,3.57,0,6.59.75,9.04,2.26,3.2,2.07,4.8,5.56,4.8,10.45v209.29c0,14.88,2.35,28.86,7.06,41.94,4.7,13.09,13.27,21.8,25.7,26.13l.28,21.18h-159.86ZM464.2,100.13c11.39-11.39,17.09-25.18,17.09-41.38s-5.7-29.98-17.09-41.38C452.81,5.98,439.01.28,422.82.28s-29.99,5.7-41.38,17.09c-11.4,11.4-17.09,25.19-17.09,41.38s5.69,29.99,17.09,41.38c11.39,11.39,25.18,17.09,41.38,17.09s29.98-5.69,41.38-17.09Z"/>
      <path class="cls-2" d="M663.75,449.09c-32.2,0-59.03-6.59-80.5-19.77-21.47-13.18-37.61-31.4-48.44-54.65-10.83-23.25-16.24-50.23-16.24-80.92s5.32-58.23,15.96-81.49c10.64-23.25,26.69-41.47,48.16-54.65,21.47-13.18,48.48-19.77,81.06-19.77s59.03,6.59,80.5,19.77c21.47,13.18,37.57,31.49,48.3,54.94,10.73,23.44,16.1,50.51,16.1,81.2s-5.42,57.15-16.24,80.5c-10.83,23.35-27.02,41.66-48.58,54.94-21.56,13.28-48.25,19.91-80.07,19.91ZM663.75,427.91c10.35,0,18.83-2.92,25.42-8.76,12.05-10.35,19.77-27.96,23.16-52.82,1.88-12.99,2.82-29.18,2.82-48.58l-.28-14.12v-26.83l-.28-23.16c-.56-24.67-3.95-45.38-10.17-62.14-8.29-21.65-21.85-32.48-40.67-32.48-10.36,0-18.74,3.2-25.14,9.6-12.05,11.68-19.77,30.79-23.16,57.34-2.07,16.57-3.11,34.56-3.11,53.95v29.94c0,6.4.09,14.17.28,23.3.19,9.13,1.03,19.4,2.54,30.79,1.5,11.4,4.1,21.89,7.77,31.49,3.67,9.6,8.76,17.42,15.25,23.44,6.5,6.03,15.01,9.04,25.56,9.04Z"/>
    </g>
    <g class="cls-1">
      <path d="M1006.36,449.09l.28-21.18c11.86-3.95,20.24-12.1,25.14-24.43,4.89-12.33,7.44-25.75,7.63-40.25v-130.77c-.38-47.26-11.68-70.89-33.89-70.89h-1.98c-14.31,1.51-27.16,8.15-38.55,19.91-11.4,11.77-19.82,23.58-25.28,35.45v142.92c0,37.85,10.92,60.54,32.76,68.07l.28,21.18h-159.87l.28-21.18c21.84-6.59,32.76-30.31,32.76-71.18v-86.15c-.19-21.09-3.49-37.28-9.89-48.58-6.4-11.3-14.12-17.89-23.16-19.77v-21.18c18.64-2.82,35.87-7.67,51.69-14.55,15.82-6.87,31.44-14.83,46.89-23.87,3.95-2.07,7.2-3.2,9.74-3.39,2.54-.19,4.1-.28,4.66-.28,9.22,0,13.84,4.24,13.84,12.71v31.92c23.54-29.75,52.35-44.63,86.43-44.63,3.39,0,6.78.19,10.17.57,29.75,2.64,53.1,12.95,70.05,30.93,16.95,17.98,25.89,41.94,26.83,71.88v117.5c0,14.88,2.35,28.86,7.06,41.94,4.7,13.09,13.28,21.8,25.7,26.13l.28,21.18h-159.87Z"/>
      <path d="M1371.56,448.52l.28-21.18c8.66-2.63,15.91-6.73,21.75-12.29,5.83-5.55,8.76-11.16,8.76-16.81,0-2.26-.47-4.7-1.41-7.34l-43.21-96.31c-7.72-17.7-19.11-31.63-34.18-41.8l-25.7,16.95v87.84c0,38.98,11.01,62.24,33.05,69.76l.28,21.18-80.78.57c-26.55,0-53.2-.19-79.93-.57l.28-21.18c8.47-2.63,15.11-7.63,19.91-14.97s8.14-16,10.03-25.98c1.88-9.98,2.83-20.05,2.83-30.22v-224.26c-.19-21.09-3.44-37.28-9.75-48.58-6.31-11.3-14.08-17.79-23.3-19.49l.85-21.47c18.45-3.01,35.59-7.91,51.41-14.69,15.82-6.78,31.44-14.69,46.89-23.73,3.95-2.26,7.2-3.48,9.74-3.67,2.54-.19,4.1-.28,4.66-.28,9.22,0,13.84,4.33,13.84,12.99v231.32l136.42-90.95c13.37-9.98,25.8-14.97,37.28-14.97,4.14,0,8.19.66,12.15,1.98,9.6,3.01,16.47,7.63,20.62,13.84,4.14,6.21,6.21,12.14,6.21,17.79,0,3.95-.66,8.01-1.98,12.14-6.59,16.38-17.42,24.57-32.48,24.57-3.95,0-8.24-.66-12.85-1.98-4.62-1.31-9.46-3.11-14.55-5.37-9.79-4.33-18.27-6.5-25.42-6.5-2.64,0-5.08.28-7.34.85-8.47,2.26-16.85,6.4-25.14,12.43l-31.92,21.18h2.26c17.7,0,34.5,4.29,50.42,12.85,15.91,8.57,28.76,22.46,38.55,41.66l51.69,105.35c4.71,8.66,12,16.71,21.89,24.15,9.89,7.44,19.07,12.1,27.54,13.98v21.18c-27.3.38-57.24.57-89.82.57s-62.52-.19-89.82-.57Z"/>
    </g>
  </g>
</svg>